<svg width="15" height="14" viewBox="0 0 15 14" fill="none" xmlns="http://www.w3.org/2000/svg">
<path d="M12.6109 0H1.41088C0.64088 0 0.0108795 0.63 0.0108795 1.4V12.6C0.0108795 13.37 0.64088 14 1.41088 14H12.6109C13.3809 14 14.0109 13.37 14.0109 12.6V1.4C14.0109 0.63 13.3809 0 12.6109 0ZM4.21088 11.9H2.11088V5.6H4.21088V11.9ZM3.16088 4.41C2.46088 4.41 1.90088 3.85 1.90088 3.15C1.90088 2.45 2.46088 1.89 3.16088 1.89C3.86088 1.89 4.42088 2.45 4.42088 3.15C4.42088 3.85 3.86088 4.41 3.16088 4.41ZM11.9109 11.9H9.81088V8.19C9.81088 7.63003 9.32088 7.14 8.76088 7.14C8.20088 7.14 7.71088 7.63003 7.71088 8.19V11.9H5.61088V5.6H7.71088V6.44C8.06088 5.88 8.83088 5.46 9.46088 5.46C10.7909 5.46 11.9109 6.58 11.9109 7.91V11.9Z" fill="white"/>
</svg>
