<svg width="17" height="16" viewBox="0 0 17 16" fill="none" xmlns="http://www.w3.org/2000/svg">
<g clip-path="url(#clip0)">
<path d="M15.9952 4.70404C15.9577 3.8539 15.8203 3.26944 15.6233 2.76299C15.4202 2.22541 15.1076 1.74412 14.6981 1.34401C14.298 0.937683 13.8135 0.621948 13.2822 0.421957C12.7728 0.22502 12.1914 0.0875415 11.3412 0.0500586C10.4847 0.00940124 10.2128 0 8.04055 0C5.86825 0 5.59634 0.00940124 4.74303 0.0468842C3.89289 0.0843671 3.30842 0.221967 2.8021 0.418783C2.2644 0.621948 1.7831 0.934509 1.383 1.34401C0.976669 1.74412 0.661056 2.22858 0.460943 2.75994C0.264006 3.26944 0.126528 3.85073 0.0890448 4.70087C0.0483874 5.55736 0.0389862 5.82926 0.0389862 8.00156C0.0389862 10.1739 0.0483874 10.4458 0.0858703 11.2991C0.123353 12.1492 0.260953 12.7337 0.457891 13.2401C0.661056 13.7777 0.976669 14.259 1.383 14.6591C1.7831 15.0654 2.26757 15.3812 2.79892 15.5812C3.30842 15.7781 3.88971 15.9156 4.73998 15.9531C5.59317 15.9907 5.8652 16 8.03749 16C10.2098 16 10.4817 15.9907 11.335 15.9531C12.1852 15.9156 12.7696 15.7781 13.2759 15.5812C14.3512 15.1654 15.2014 14.3153 15.6171 13.2401C15.8139 12.7306 15.9515 12.1492 15.989 11.2991C16.0265 10.4458 16.0359 10.1739 16.0359 8.00156C16.0359 5.82926 16.0327 5.55736 15.9952 4.70404ZM14.5544 11.2366C14.52 12.018 14.3887 12.4399 14.2793 12.7212C14.0105 13.4183 13.4573 13.9715 12.7602 14.2403C12.4789 14.3497 12.0539 14.481 11.2756 14.5153C10.4316 14.5529 10.1785 14.5622 8.04372 14.5622C5.90891 14.5622 5.65263 14.5529 4.81177 14.5153C4.03036 14.481 3.60841 14.3497 3.3271 14.2403C2.98023 14.1121 2.6645 13.909 2.40822 13.6433C2.14255 13.3838 1.93938 13.0713 1.81118 12.7244C1.70179 12.4431 1.57053 12.018 1.53623 11.2397C1.49862 10.3958 1.48934 10.1426 1.48934 8.00779C1.48934 5.87297 1.49862 5.6167 1.53623 4.77596C1.57053 3.99455 1.70179 3.5726 1.81118 3.29129C1.93938 2.9443 2.14255 2.62869 2.4114 2.37229C2.67072 2.10661 2.98329 1.90345 3.33028 1.77537C3.61158 1.66597 4.03671 1.53472 4.81494 1.50029C5.65886 1.46281 5.91208 1.45341 8.04677 1.45341C10.1848 1.45341 10.4379 1.46281 11.2787 1.50029C12.0601 1.53472 12.4821 1.66597 12.7634 1.77537C13.1103 1.90345 13.426 2.10661 13.6823 2.37229C13.9479 2.63174 14.1511 2.9443 14.2793 3.29129C14.3887 3.5726 14.52 3.99761 14.5544 4.77596C14.5919 5.61987 14.6013 5.87297 14.6013 8.00779C14.6013 10.1426 14.5919 10.3927 14.5544 11.2366Z" fill="white"/>
<path d="M8.04055 3.8916C5.77143 3.8916 3.93037 5.73254 3.93037 8.00178C3.93037 10.271 5.77143 12.112 8.04055 12.112C10.3098 12.112 12.1507 10.271 12.1507 8.00178C12.1507 5.73254 10.3098 3.8916 8.04055 3.8916ZM8.04055 10.6679C6.56846 10.6679 5.37438 9.47399 5.37438 8.00178C5.37438 6.52957 6.56846 5.33561 8.04055 5.33561C9.51276 5.33561 10.7067 6.52957 10.7067 8.00178C10.7067 9.47399 9.51276 10.6679 8.04055 10.6679Z" fill="white"/>
<path d="M13.2729 3.72858C13.2729 4.25847 12.8433 4.68812 12.3132 4.68812C11.7833 4.68812 11.3537 4.25847 11.3537 3.72858C11.3537 3.19857 11.7833 2.76904 12.3132 2.76904C12.8433 2.76904 13.2729 3.19857 13.2729 3.72858Z" fill="white"/>
</g>
<defs>
<clipPath id="clip0">
<rect width="16" height="16" fill="white" transform="translate(0.0108795)"/>
</clipPath>
</defs>
</svg>
