<svg width="21" height="20" viewBox="0 0 21 20" fill="none" xmlns="http://www.w3.org/2000/svg">
<g clip-path="url(#clip0)">
<path d="M20.0109 3.79875C19.2671 4.125 18.4746 4.34125 17.6484 4.44625C18.4984 3.93875 19.1471 3.14125 19.4521 2.18C18.6596 2.6525 17.7846 2.98625 16.8521 3.1725C16.0996 2.37125 15.0271 1.875 13.8571 1.875C11.5871 1.875 9.75963 3.7175 9.75963 5.97625C9.75963 6.30125 9.78713 6.61375 9.85463 6.91125C6.44588 6.745 3.42963 5.11125 1.40338 2.6225C1.04963 3.23625 0.84213 3.93875 0.84213 4.695C0.84213 6.115 1.57338 7.37375 2.66338 8.1025C2.00463 8.09 1.35838 7.89875 0.810879 7.5975C0.810879 7.61 0.810879 7.62625 0.810879 7.6425C0.810879 9.635 2.23213 11.29 4.09588 11.6712C3.76213 11.7625 3.39838 11.8062 3.02088 11.8062C2.75838 11.8062 2.49338 11.7913 2.24463 11.7362C2.77588 13.36 4.28338 14.5538 6.07588 14.5925C4.68088 15.6838 2.90963 16.3412 0.99213 16.3412C0.65588 16.3412 0.33338 16.3263 0.0108795 16.285C1.82713 17.4563 3.97963 18.125 6.30088 18.125C13.8459 18.125 17.9709 11.875 17.9709 6.4575C17.9709 6.27625 17.9646 6.10125 17.9559 5.9275C18.7696 5.35 19.4534 4.62875 20.0109 3.79875Z" fill="white"/>
</g>
<defs>
<clipPath id="clip0">
<rect width="20" height="20" fill="white" transform="translate(0.0108795)"/>
</clipPath>
</defs>
</svg>
